<svg xmlns="http://www.w3.org/2000/svg" width="1200" height="630" viewBox="0 0 1200 630">
  <defs>
    <linearGradient id="bg" x1="0" y1="0" x2="1" y2="1">
      <stop offset="0" stop-color="#F5EFE4"/>
      <stop offset="1" stop-color="#E8DECE"/>
    </linearGradient>
    <pattern id="grout" width="60" height="60" patternUnits="userSpaceOnUse">
      <rect width="60" height="60" fill="none"/>
      <path d="M0 30 H60 M30 0 V60" stroke="#9B9589" stroke-width=".5" stroke-opacity=".15"/>
    </pattern>
    <linearGradient id="tileGold" x1="0" y1="0" x2="1" y2="1">
      <stop offset="0" stop-color="#E2C57A"/>
      <stop offset="1" stop-color="#C9A84C"/>
    </linearGradient>
    <linearGradient id="tileClay" x1="0" y1="0" x2="1" y2="1">
      <stop offset="0" stop-color="#D4957A"/>
      <stop offset="1" stop-color="#9A5A40"/>
    </linearGradient>
    <linearGradient id="tileCream" x1="0" y1="0" x2="0" y2="1">
      <stop offset="0" stop-color="#FDFAF5"/>
      <stop offset="1" stop-color="#EFE6D5"/>
    </linearGradient>
    <linearGradient id="tileSlate" x1="0" y1="0" x2="1" y2="1">
      <stop offset="0" stop-color="#454850"/>
      <stop offset="1" stop-color="#2C2E33"/>
    </linearGradient>
    <filter id="tileShadow" x="-20%" y="-20%" width="140%" height="140%">
      <feGaussianBlur in="SourceAlpha" stdDeviation="3"/>
      <feOffset dx="0" dy="2" result="offsetblur"/>
      <feComponentTransfer><feFuncA type="linear" slope="0.18"/></feComponentTransfer>
      <feMerge><feMergeNode/><feMergeNode in="SourceGraphic"/></feMerge>
    </filter>
  </defs>

  <!-- background -->
  <rect width="1200" height="630" fill="url(#bg)"/>
  <rect width="1200" height="630" fill="url(#grout)"/>

  <!-- left slate vertical bar -->
  <rect x="0" y="0" width="72" height="630" fill="#2C2E33"/>
  <g transform="translate(46,560) rotate(-90)">
    <text x="0" y="0" fill="#C9A84C" font-family="'Helvetica Neue',Helvetica,Arial,sans-serif" font-size="13" letter-spacing="7" font-weight="700">EST · 1944 · NEW YORK CITY</text>
  </g>

  <!-- top gold accent rule -->
  <rect x="72" y="0" width="1128" height="3" fill="#C9A84C"/>

  <!-- brand mark + wordmark (top) -->
  <g transform="translate(120,72)">
    <rect width="36" height="36" rx="3" fill="url(#tileGold)" filter="url(#tileShadow)"/>
    <rect x="42" width="36" height="36" rx="3" fill="url(#tileCream)" stroke="#C5BFB1" stroke-width=".6" filter="url(#tileShadow)"/>
    <rect y="42" width="36" height="36" rx="3" fill="url(#tileCream)" stroke="#C5BFB1" stroke-width=".6" filter="url(#tileShadow)"/>
    <rect x="42" y="42" width="36" height="36" rx="3" fill="url(#tileClay)" filter="url(#tileShadow)"/>
  </g>
  <text x="232" y="100" fill="#2C2E33" font-family="'Helvetica Neue',Helvetica,Arial,sans-serif" font-size="17" letter-spacing="5" font-weight="700">NICK THE TILE MAN</text>
  <text x="232" y="128" fill="#6E695F" font-family="'Helvetica Neue',Helvetica,Arial,sans-serif" font-size="12" letter-spacing="3" font-weight="500">THIRD-GENERATION CRAFTSMANSHIP · SINCE 1944</text>

  <!-- divider thin -->
  <line x1="120" y1="200" x2="240" y2="200" stroke="#C9A84C" stroke-width="2"/>

  <!-- HERO HEADLINE -->
  <text x="120" y="270" fill="#2C2E33" font-family="Georgia,'Times New Roman',serif" font-size="78" font-weight="400" letter-spacing="-1.5">Three Generations</text>
  <text x="120" y="350" fill="#9A5A40" font-family="Georgia,'Times New Roman',serif" font-size="78" font-weight="400" font-style="italic" letter-spacing="-1.5">of New York Tile.</text>

  <!-- subtitle -->
  <text x="120" y="400" fill="#454850" font-family="Georgia,'Times New Roman',serif" font-size="20" font-style="italic">Bathrooms · Kitchens · Mosaic · Restoration</text>

  <!-- service area band -->
  <text x="120" y="442" fill="#6E695F" font-family="'Helvetica Neue',Helvetica,Arial,sans-serif" font-size="12.5" letter-spacing="3.5" font-weight="700">BROOKLYN · QUEENS · MANHATTAN · NASSAU · SUFFOLK</text>

  <!-- bottom badge row -->
  <g transform="translate(120,475)">
    <rect width="360" height="54" rx="4" fill="#2C2E33"/>
    <rect x="0" y="0" width="4" height="54" fill="#C9A84C"/>
    <text x="22" y="24" fill="#C9A84C" font-family="'Helvetica Neue',Helvetica,Arial,sans-serif" font-size="13" letter-spacing="3" font-weight="700">FREE ESTIMATES</text>
    <text x="22" y="44" fill="#F5EFE4" font-family="Georgia,'Times New Roman',serif" font-style="italic" font-size="15">Licensed · Insured · Family-Owned</text>
  </g>

  <!-- DECORATIVE TILE COMPOSITION (right) -->
  <g transform="translate(770,140)" filter="url(#tileShadow)">
    <!-- 4x4 mosaic, 80px tiles, 6px gap -->
    <!-- row 1 -->
    <rect x="0"   y="0"   width="80" height="80" rx="3" fill="url(#tileCream)" stroke="#C5BFB1" stroke-width=".6"/>
    <rect x="86"  y="0"   width="80" height="80" rx="3" fill="url(#tileGold)"/>
    <rect x="172" y="0"   width="80" height="80" rx="3" fill="url(#tileCream)" stroke="#C5BFB1" stroke-width=".6"/>
    <rect x="258" y="0"   width="80" height="80" rx="3" fill="url(#tileClay)"/>
    <!-- row 2 -->
    <rect x="0"   y="86"  width="80" height="80" rx="3" fill="url(#tileClay)"/>
    <rect x="86"  y="86"  width="80" height="80" rx="3" fill="url(#tileSlate)"/>
    <rect x="172" y="86"  width="80" height="80" rx="3" fill="url(#tileGold)"/>
    <rect x="258" y="86"  width="80" height="80" rx="3" fill="url(#tileCream)" stroke="#C5BFB1" stroke-width=".6"/>
    <!-- row 3 -->
    <rect x="0"   y="172" width="80" height="80" rx="3" fill="url(#tileGold)"/>
    <rect x="86"  y="172" width="80" height="80" rx="3" fill="url(#tileCream)" stroke="#C5BFB1" stroke-width=".6"/>
    <rect x="172" y="172" width="80" height="80" rx="3" fill="url(#tileClay)"/>
    <rect x="258" y="172" width="80" height="80" rx="3" fill="url(#tileGold)"/>
    <!-- row 4 -->
    <rect x="0"   y="258" width="80" height="80" rx="3" fill="url(#tileCream)" stroke="#C5BFB1" stroke-width=".6"/>
    <rect x="86"  y="258" width="80" height="80" rx="3" fill="url(#tileClay)"/>
    <rect x="172" y="258" width="80" height="80" rx="3" fill="url(#tileCream)" stroke="#C5BFB1" stroke-width=".6"/>
    <rect x="258" y="258" width="80" height="80" rx="3" fill="url(#tileSlate)"/>
  </g>

  <!-- subtle iridescent glints on a few mosaic tiles -->
  <g opacity=".35">
    <ellipse cx="816" cy="160" rx="22" ry="8" fill="#FDFAF5"/>
    <ellipse cx="1042" cy="332" rx="20" ry="7" fill="#E2C57A"/>
    <ellipse cx="942" cy="418" rx="18" ry="6" fill="#FDFAF5"/>
  </g>

  <!-- corner mark bottom-right -->
  <text x="1170" y="555" text-anchor="end" fill="#9B9589" font-family="'Helvetica Neue',Helvetica,Arial,sans-serif" font-size="10" letter-spacing="3" font-weight="600">NYC · BROOKLYN · QUEENS · LONG ISLAND</text>
</svg>
